{"title":"The.Midnight.After.2014.BRRip.720p.x264.AAC-PRiSTiNE [P2PDL]","uid":10941872,"size":753514215,"categoryP":"video","categoryS":"hd___movies","magnet":"?xt=urn:btih:62e3300d132e38e5638dec896b97b77e69298965&amp;dn=The.Midnight.After.2014.BRRip.720p.x264.AAC-PRiSTiNE+%5BP2PDL%5D&amp;tr=udp%3A%2F%2Ftracker.openbittorrent.com%3A80&amp;tr=udp%3A%2F%2Fopen.demonii.com%3A1337&amp;tr=udp%3A%2F%2Ftracker.coppersurfer.tk%3A6969&amp;tr=udp%3A%2F%2Fexodus.desync.com%3A6969","seeders":1,"leechers":1,"uploader":"ValidusVyto","files":-1,"time":1409544622,"description":" ___    ___       ___   _____    _   _  ___   \n(  _` |  _`  _ (  _`(_   _)_ ( ) ( )(  _` \n| |_) )| (_) )(_)| (_(_) | | (_)| `| || (_(_)\n| ,__/'| ,  / | |`__   | | | || , ` ||  _)_ \n| |    | |  | |( )_) | | | | || |` || (_( )\n(_)    (_) (_)(_)`____) (_) (_)(_) (_)(____/' \n\n\n\nThe.Midnight.After.2014.BRRip.720p.x264.AAC-PRiSTiNE\n\n\nGenre:  Mystery | Thriller &lt;a href=&quot;\nhttp://www.imdb.com/title/tt3504824/&quot; rel=&quot;nofollow&quot; target=&quot;_NEW&quot;&gt;\nhttp://www.imdb.com/title/tt3504824/&lt;/a&gt;\n\n\nGeneral\nFormat                         : MPEG-4\nFile size                      : 711 MiB\nDuration                       : 2h 0mn\nOverall bit rate               : 824 Kbps\n\nVideo\nFormat                         : AVC\nBit rate                       : 740 Kbps\nWidth                          : 1 280 pixels\nHeight                         : 544 pixels\nDisplay aspect ratio           : 2.35:1\nFrame rate mode                : Constant\nFrame rate                     : 24.000 fps\nBit depth                      : 8 bits\nStream size                    : 638 MiB (90%)\nWriting library                : x264 core 142 r2389 956c8d8\n\nAudio\nFormat                         : AAC\nBit rate                       : 80.0 Kbps\nChannel(s)                     : 2 channels\nChannel positions              : Front: L R\nSampling rate                  : 48.0 KHz\nStream size                    : 69.0 MiB (10%)\nLanguage                       : Chinese\n\nSubtitle                       : Yes (English)\n &lt;a href=&quot;\nhttp://someimage.com/qizec7J&quot; rel=&quot;nofollow&quot; target=&quot;_NEW&quot;&gt;\nhttp://someimage.com/qizec7J&lt;/a&gt; &lt;a href=&quot;\nhttp://someimage.com/XzLDcyk&quot; rel=&quot;nofollow&quot; target=&quot;_NEW&quot;&gt;\nhttp://someimage.com/XzLDcyk&lt;/a&gt; &lt;a href=&quot;\nhttp://someimage.com/10QGKHi&quot; rel=&quot;nofollow&quot; target=&quot;_NEW&quot;&gt;\nhttp://someimage.com/10QGKHi&lt;/a&gt; &lt;a href=&quot;\nhttp://someimage.com/oklWBtZ&quot; rel=&quot;nofollow&quot; target=&quot;_NEW&quot;&gt;\nhttp://someimage.com/oklWBtZ&lt;/a&gt; &lt;a href=&quot;\nhttp://someimage.com/6nWqY1T&quot; rel=&quot;nofollow&quot; target=&quot;_NEW&quot;&gt;\nhttp://someimage.com/6nWqY1T&lt;/a&gt; &lt;a href=&quot;\nhttp://someimage.com/uqHkwqC&quot; rel=&quot;nofollow&quot; target=&quot;_NEW&quot;&gt;\nhttp://someimage.com/uqHkwqC&lt;/a&gt;\n\n----------------------------------------------------------------------------------------------------\n\n\nRecommend to you to use latest version of VLC player. Install K-Lite Codec Pack or shark007 codecs\nin case of any kind of problem in playback (For non-VLC Media Player users). Alternatively, install\nCore AVC codecs, the fastest decoder that there is coupled with Community Center Codec Pack and play\non Windows Media Player Classic. Check sample to be sure.\n\nEncoder Notes: Looking For Early Access To Anything You Can Provide DVDScr, R5, DVDR, BluRay, Direct\nAudio, Music Releases and Seedboxes. We require dedicated servers, so as to do more \nand fast releases of movies.\n\nFind us @ P2PDL\nSearch it!","torrent":{"xt":"urn:btih:62e3300d132e38e5638dec896b97b77e69298965","amp;dn":"The.Midnight.After.2014.BRRip.720p.x264.AAC-PRiSTiNE+%5BP2PDL%5D","amp;tr":["udp%3A%2F%2Ftracker.openbittorrent.com%3A80","udp%3A%2F%2Fopen.demonii.com%3A1337","udp%3A%2F%2Ftracker.coppersurfer.tk%3A6969","udp%3A%2F%2Fexodus.desync.com%3A6969"],"infoHash":"62e3300d132e38e5638dec896b97b77e69298965","infoHashBuffer":{"type":"Buffer","data":[98,227,48,13,19,46,56,229,99,141,236,137,107,151,183,126,105,41,137,101]},"announce":[],"urlList":[]}}